<svg width="27" height="42" viewBox="0 0 27 42" fill="none" xmlns="http://www.w3.org/2000/svg">
<path d="M24.9493 0.000488281L16.5647 14.4932H10.4351L18.8188 0.000488281H24.9493Z" fill="#DF1E26"/>
<path d="M19.6304 9.19434L16.5647 14.4932L13.4999 9.19434H19.6304Z" fill="#BF2026"/>
<path d="M13.4999 12.7275V14.5109H16.8144V15.005H13.4999V18.0828H18.602V14.1667C18.602 13.3714 17.9558 12.7275 17.1595 12.7275H13.4999Z" fill="#F6901E"/>
<path d="M10.1854 14.5114V15.0055H13.5V18.0833H8.397V14.1672C8.397 13.3727 9.0432 12.728 9.83956 12.728H13.4991V14.5114H10.1854Z" fill="#FFC514"/>
<path d="M26.2414 28.5891C26.2414 35.6098 20.536 41.3017 13.4989 41.3017V15.8779C20.5374 15.8779 26.2414 21.5685 26.2414 28.5891Z" fill="#FFC514"/>
<path d="M2.05057 0L10.4343 14.4936H16.5647L8.18102 0H2.05057Z" fill="#ED2C24"/>
<path d="M13.5002 15.8779V41.3017C6.46308 41.3017 0.757767 35.6098 0.757767 28.5891C0.757767 21.5685 6.46308 15.8779 13.5002 15.8779Z" fill="#FADB00"/>
<path d="M22.7636 28.5898C22.7636 33.6934 18.6158 37.8315 13.5002 37.8315C8.38458 37.8315 4.23676 33.6934 4.23676 28.5898C4.23676 23.4862 8.38458 19.3481 13.5002 19.3481C18.6158 19.3481 22.7636 23.4862 22.7636 28.5898Z" fill="#FCEE2A"/>
</svg>
